<svg width="32" height="32" viewBox="0 0 32 32" xmlns="http://www.w3.org/2000/svg">
  <!-- Gradient background similar to bg-gradient-hero -->
  <defs>
    <linearGradient id="gradient" x1="0%" y1="0%" x2="100%" y2="100%">
      <stop offset="0%" stop-color="#4F46E5" />
      <stop offset="100%" stop-color="#1D4ED8" />
    </linearGradient>
  </defs>
  
  <!-- Rounded rectangle background -->
  <rect width="32" height="32" rx="8" fill="url(#gradient)" />
  
  <!-- Heart icon (simplified) -->
  <path d="M16 25.5C15.8 25.5 15.6 25.4 15.4 25.3C15.1 25.1 9 20.5 9 15.5C9 12.5 11.5 10 14.5 10C15.4 10 16.3 10.2 17 10.7C17.7 10.2 18.6 10 19.5 10C22.5 10 25 12.5 25 15.5C25 20.5 18.9 25.1 18.6 25.3C18.4 25.4 18.2 25.5 18 25.5H16Z" fill="white" />
</svg>
